<?xml version="1.0" encoding="UTF-8"?>
<svg width="723px" height="611px" viewBox="0 0 723 611" version="1.1" xmlns="http://www.w3.org/2000/svg" xmlns:xlink="http://www.w3.org/1999/xlink">
    <!-- Generator: Sketch 47.1 (45422) - http://www.bohemiancoding.com/sketch -->
    <title>Fill 6 Copy</title>
    <desc>Created with Sketch.</desc>
    <defs></defs>
    <g id="Welcome" stroke="none" stroke-width="1" fill="none" fill-rule="evenodd">
        <path d="M24.9819332,380.972476 L698.114846,380.972476 L698.114846,29.9444049 L24.9819332,29.9444049 L24.9819332,380.972476 Z M694.049441,0 L28.7319931,0 C12.8638419,0 0,12.9460344 0,28.9123814 L0,460.496891 C0,476.463238 12.8638419,489.409272 28.7319931,489.409272 L288.148069,489.409272 L279.682025,580.280228 L258.004122,598.106218 L258.004122,601.858381 L261.732875,605.611974 L267.326714,607.723191 L288.771659,608.660874 L363.464614,610.064541 L363.464614,610.068829 L363.596718,610.06597 L363.728822,610.068829 L363.728822,610.064541 L438.421777,608.660874 L459.866722,607.723191 L465.463402,605.611974 L469.190735,601.858381 L469.190735,598.106218 L447.512831,580.280228 L439.049628,489.409272 L694.049441,489.409272 C709.917592,489.409272 722.781434,476.463238 722.781434,460.496891 L722.781434,28.9123814 C722.781434,12.9460344 709.917592,0 694.049441,0 L694.049441,0 Z" id="Fill-6-Copy" fill="#FFFFFE"></path>
    </g>
</svg>