<?xml version="1.0" encoding="UTF-8"?>
<svg width="269px" height="568px" viewBox="0 0 269 568" version="1.1" xmlns="http://www.w3.org/2000/svg" xmlns:xlink="http://www.w3.org/1999/xlink">
    <!-- Generator: Sketch 47.1 (45422) - http://www.bohemiancoding.com/sketch -->
    <title>Fill 6 Copy</title>
    <desc>Created with Sketch.</desc>
    <defs></defs>
    <g id="Welcome" stroke="none" stroke-width="1" fill="none" fill-rule="evenodd">
        <path d="M22.6773283,485.188109 L250.17762,485.188109 L250.17762,80.0376294 L22.6773283,80.0376294 L22.6773283,485.188109 Z M136.987071,551.445927 C123.21793,551.445927 112.052681,540.280677 112.052681,526.514205 C112.052681,512.734393 123.21793,501.569144 136.987071,501.569144 C150.756211,501.569144 161.917458,512.734393 161.917458,526.514205 C161.917458,540.280677 150.756211,551.445927 136.987071,551.445927 L136.987071,551.445927 Z M162.368337,49.1164252 C162.368337,52.4513264 159.663065,55.1459266 156.325496,55.1459266 L115.426267,55.1459266 C112.088698,55.1459266 109.38476,52.4513264 109.38476,49.1164252 L109.38476,48.7162371 C109.38476,45.3946754 112.088698,42.6867357 115.426267,42.6867357 L156.325496,42.6867357 C159.663065,42.6867357 162.368337,45.3946754 162.368337,48.7162371 L162.368337,49.1164252 Z M268.016674,38.1779492 C268.016674,17.0880339 250.925972,1.13686838e-13 229.840058,1.13686838e-13 L38.1779492,1.13686838e-13 C17.0920357,1.13686838e-13 0,17.0880339 0,38.1779492 L0,529.022051 C0,550.111966 17.0920357,567.2 38.1779492,567.2 L229.840058,567.2 C250.925972,567.2 268.016674,550.111966 268.016674,529.022051 L268.016674,38.1779492 L268.016674,38.1779492 Z" id="Fill-6-Copy" fill="#FFFFFE"></path>
    </g>
</svg>