<?xml version="1.0" encoding="UTF-8"?>
<svg width="505px" height="656px" viewBox="0 0 505 656" version="1.1" xmlns="http://www.w3.org/2000/svg" xmlns:xlink="http://www.w3.org/1999/xlink">
    <!-- Generator: Sketch 47.1 (45422) - http://www.bohemiancoding.com/sketch -->
    <title>Fill 11</title>
    <desc>Created with Sketch.</desc>
    <defs></defs>
    <g id="Welcome" stroke="none" stroke-width="1" fill="none" fill-rule="evenodd">
        <path d="M50.1306965,599.700975 L453.015831,599.700975 L453.015831,57.568929 L50.1306965,57.568929 L50.1306965,599.700975 Z M253.578005,641.830095 C245.374737,641.830095 238.725882,635.170807 238.725882,626.981449 C238.725882,618.774704 245.374737,612.115416 253.578005,612.115416 C261.781273,612.115416 268.431866,618.774704 268.431866,626.981449 C268.431866,635.170807 261.781273,641.830095 253.578005,641.830095 L253.578005,641.830095 Z M505,26.4632769 C505,11.8580518 493.157597,0 478.543678,0 L26.4580608,0 C11.8476195,0 0,11.8580518 0,26.4632769 L0,628.928812 C0,643.551425 11.8476195,655.392089 26.4580608,655.392089 L478.543678,655.392089 C493.157597,655.392089 505,643.551425 505,628.928812 L505,26.4632769 L505,26.4632769 Z" id="Fill-11" fill="#FFFFFE"></path>
    </g>
</svg>