<?xml version="1.0" encoding="UTF-8" standalone="no"?>
<svg width="44px" height="37px" viewBox="0 0 44 37" version="1.1" xmlns="http://www.w3.org/2000/svg" xmlns:xlink="http://www.w3.org/1999/xlink">
    <!-- Generator: Sketch 42 (36781) - http://www.bohemiancoding.com/sketch -->
    <title>Shape Copy 9</title>
    <desc>Created with Sketch.</desc>
    <defs></defs>
    <g id="Welcome" stroke="none" stroke-width="1" fill="none" fill-rule="evenodd">
        <g id="Desktop-HD" transform="translate(-50.000000, -408.000000)" fill-rule="nonzero" fill="#000000">
            <path d="M90,438.619314 L80,438.619314 L75.5,443.119314 C73.6,445.019314 70.4,445.019314 68.5,443.119314 L63.9,438.619314 L54,438.619314 C51.8,438.619314 50,436.819314 50,434.619314 L50,412.619314 C50,410.419314 51.8,408.619314 54,408.619314 L90,408.619314 C92.2,408.619314 94,410.419314 94,412.619314 L94,434.619314 C94,436.819314 92.2,438.619314 90,438.619314 Z M65.7,435.619314 C67,436.919314 69.7,439.619314 69.7,439.619314 C71,440.919314 73.1,440.919314 74.4,439.619314 C74.4,439.619314 77.1,436.919314 78.4,435.619314 C79.6,434.419314 80.1,434.619314 80.1,434.619314 L88.1,434.619314 C89.2,434.619314 90.1,433.719314 90.1,432.619314 L90.1,414.619314 C90.1,413.519314 89.2,412.619314 88.1,412.619314 L56,412.619314 C54.9,412.619314 54,413.519314 54,414.619314 L54,432.619314 C54,433.719314 54.9,434.619314 56,434.619314 L64,434.619314 C64,434.619314 64.7,434.619314 65.7,435.619314 Z" id="Shape-Copy-9"></path>
        </g>
    </g>
</svg>