<?xml version="1.0" encoding="UTF-8" standalone="no"?>
<svg width="44px" height="44px" viewBox="0 0 44 44" version="1.1" xmlns="http://www.w3.org/2000/svg" xmlns:xlink="http://www.w3.org/1999/xlink">
    <!-- Generator: Sketch 42 (36781) - http://www.bohemiancoding.com/sketch -->
    <title>Shape Copy 7</title>
    <desc>Created with Sketch.</desc>
    <defs></defs>
    <g id="Welcome" stroke="none" stroke-width="1" fill="none" fill-rule="evenodd">
        <g id="Desktop-HD" transform="translate(-1179.000000, -21.000000)" fill-rule="nonzero" fill="#231F20">
            <path d="M1201.23333,27.7 C1201.23333,27.7 1201.23333,27.8 1201.33333,27.8 C1201.43333,27.9 1201.43333,28 1201.53333,28.1 C1201.63333,28.2 1201.63333,28.3 1201.73333,28.5 C1201.83333,28.6 1201.93333,28.8 1201.93333,28.9 C1202.03333,29.1 1202.13333,29.2 1202.23333,29.4 C1202.33333,29.6 1202.43333,29.8 1202.53333,30 C1202.63333,30.2 1202.73333,30.4 1202.83333,30.6 C1202.93333,30.8 1203.03333,31 1203.13333,31.2 C1203.23333,31.4 1203.33333,31.6 1203.43333,31.8 C1203.53333,32 1203.63333,32.2 1203.73333,32.4 C1203.83333,32.6 1203.93333,32.8 1204.03333,32.9 C1204.13333,33.1 1204.23333,33.2 1204.33333,33.4 C1204.43333,33.5 1204.43333,33.7 1204.53333,33.8 C1204.63333,33.9 1204.63333,34 1204.73333,34.1 C1204.73333,34.2 1204.83333,34.2 1204.83333,34.3 L1204.83333,34.4 C1205.73333,36.1 1207.23333,37.2 1209.13333,37.6 L1215.73333,38.9 C1216.53333,39.1 1216.83333,40 1216.23333,40.5 L1211.33333,46 C1210.13333,47.3 1209.63333,49.1 1209.83333,50.8 L1210.63333,57.8 C1210.73333,58.6 1209.93333,59.2 1209.23333,58.8 L1203.73333,56.1 C1202.93333,55.7 1201.93333,55.5 1201.03333,55.5 C1200.13333,55.5 1199.13333,55.7 1198.33333,56.1 L1192.83333,58.8 C1192.13333,59.2 1191.33333,58.6 1191.43333,57.8 L1192.23333,50.8 C1192.43333,49 1191.93333,47.3 1190.73333,46 L1185.93333,40.6 C1185.43333,40 1185.73333,39.1 1186.43333,39 L1193.03333,37.7 C1194.83333,37.3 1196.43333,36.2 1197.33333,34.5 C1197.33333,34.5 1197.33333,34.5 1197.33333,34.4 C1197.33333,34.3 1197.43333,34.3 1197.43333,34.2 C1197.43333,34.1 1197.53333,34 1197.53333,33.9 C1197.63333,33.8 1197.63333,33.7 1197.73333,33.5 C1197.83333,33.4 1197.83333,33.2 1197.93333,33.1 C1198.03333,32.9 1198.13333,32.8 1198.13333,32.6 C1198.23333,32.4 1198.33333,32.2 1198.43333,32.1 C1198.53333,31.9 1198.63333,31.7 1198.73333,31.5 C1198.83333,31.3 1198.93333,31.1 1199.03333,30.9 C1199.13333,30.7 1199.23333,30.5 1199.33333,30.3 C1199.43333,30.1 1199.53333,29.9 1199.63333,29.7 C1199.73333,29.5 1199.83333,29.4 1199.93333,29.2 C1200.03333,29 1200.13333,28.9 1200.13333,28.7 C1200.23333,28.6 1200.23333,28.4 1200.33333,28.3 C1200.43333,28.2 1200.43333,28.1 1200.53333,28 C1200.53333,27.9 1200.63333,27.8 1200.63333,27.7 C1200.73333,27.6 1200.73333,27.5 1200.83333,27.5 L1201.13333,27.5 L1201.23333,27.7 Z M1200.93333,21 C1200.13333,21 1199.43333,21.4 1199.03333,22.2 L1193.63333,32.6 C1193.33333,33.2 1192.73333,33.6 1192.13333,33.7 L1180.73333,36 C1179.13333,36.3 1178.43333,38.3 1179.53333,39.6 L1187.53333,48.7 C1187.93333,49.2 1188.13333,49.8 1188.03333,50.4 L1186.63333,62.5 C1186.43333,63.9 1187.53333,64.9 1188.83333,64.9 C1189.13333,64.9 1189.43333,64.8 1189.83333,64.7 L1199.93333,59.7 C1200.23333,59.5 1200.53333,59.5 1200.93333,59.5 C1201.23333,59.5 1201.63333,59.6 1201.93333,59.7 L1212.13333,64.8 C1212.43333,65 1212.73333,65 1213.13333,65 C1214.33333,65 1215.43333,63.9 1215.33333,62.6 L1213.93333,50.5 C1213.83333,49.9 1214.03333,49.3 1214.43333,48.8 L1222.43333,39.7 C1223.53333,38.4 1222.93333,36.4 1221.23333,36.1 L1209.83333,33.8 C1209.23333,33.7 1208.63333,33.3 1208.33333,32.7 L1202.83333,22.2 C1202.43333,21.4 1201.73333,21 1200.93333,21 L1200.93333,21 Z" id="Shape-Copy-7"></path>
        </g>
    </g>
</svg>