<?xml version="1.0" encoding="UTF-8" standalone="no"?>
<svg width="44px" height="36px" viewBox="0 0 44 36" version="1.1" xmlns="http://www.w3.org/2000/svg" xmlns:xlink="http://www.w3.org/1999/xlink">
    <!-- Generator: Sketch 42 (36781) - http://www.bohemiancoding.com/sketch -->
    <title>Shape Copy 10</title>
    <desc>Created with Sketch.</desc>
    <defs></defs>
    <g id="Welcome" stroke="none" stroke-width="1" fill="none" fill-rule="evenodd">
        <g id="Desktop-HD" transform="translate(-50.000000, -476.000000)" fill-rule="nonzero" fill="#000000">
            <path d="M92,508 C90.9,508 90,507.1 90,506 C90,502.7 87.3,500 84,500 C80.7,500 78,502.7 78,506 L78,509 L78,509 L78,510 C78,511.1 77.1,512 76,512 C74.9,512 74,511.1 74,510 C74,504.5 69.5,500 64,500 C58.5,500 54,504.5 54,510 C54,511.1 53.1,512 52,512 C50.9,512 50,511.1 50,510 L50,509.3 C50,508.9 50.3,507.2 50.4,506.9 C51.3,503 53.8,499.8 57.2,497.9 C54.1,495.7 52,492.1 52,488 C52,481.4 57.4,476 64,476 C70.6,476 76,481.4 76,488 C76,492.1 73.9,495.7 70.8,497.9 C72.5,498.8 73.9,500.1 75.1,501.6 C75.9,500.1 77,498.7 78.4,497.8 C76.9,496.3 76,494.2 76,492 C76,487.6 79.6,484 84,484 C88.4,484 92,487.6 92,492 C92,494.2 91.1,496.3 89.6,497.7 C91.3,498.9 92.7,500.6 93.4,502.6 C93.7,503.2 93.9,504.4 94,505 L94,506 C94,507.1 93.1,508 92,508 Z M72,488 C72,483.6 68.4,480 64,480 C59.6,480 56,483.6 56,488 C56,492.4 59.6,496 64,496 C68.4,496 72,492.4 72,488 Z M84,488 C81.8,488 80,489.8 80,492 C80,494.2 81.8,496 84,496 C86.2,496 88,494.2 88,492 C88,489.8 86.2,488 84,488 Z" id="Shape-Copy-10"></path>
        </g>
    </g>
</svg>