<?xml version="1.0" encoding="UTF-8" standalone="no"?>
<svg width="44px" height="33px" viewBox="0 0 44 33" version="1.1" xmlns="http://www.w3.org/2000/svg" xmlns:xlink="http://www.w3.org/1999/xlink">
    <!-- Generator: Sketch 42 (36781) - http://www.bohemiancoding.com/sketch -->
    <title>Shape Copy 2</title>
    <desc>Created with Sketch.</desc>
    <defs></defs>
    <g id="Welcome" stroke="none" stroke-width="1" fill="none" fill-rule="evenodd">
        <g id="Desktop-HD" transform="translate(-50.000000, -277.000000)" fill-rule="nonzero" fill="#231F20">
            <path d="M65.111426,281.707941 C65.911426,281.707941 66.511426,282.307941 67.211426,282.607941 C67.311426,282.607941 67.311426,282.607941 67.411426,282.707941 C67.511426,282.707941 67.511426,282.807941 67.511426,282.907941 C67.611426,283.107941 67.811426,283.407941 67.911426,283.607941 C67.911426,283.607941 67.911426,283.707941 68.011426,283.707941 L68.211426,283.707941 L72.011426,283.707941 L75.811426,283.707941 L76.011426,283.707941 C76.111426,283.707941 76.211426,283.607941 76.311426,283.507941 C76.411426,283.307941 76.511426,283.007941 76.611426,282.807941 C76.611426,282.607941 76.711426,282.607941 76.911426,282.607941 C77.111426,282.607941 77.211426,282.507941 77.311426,282.407941 L78.511426,281.707941 L78.911426,281.707941 C79.811426,281.707941 80.811426,281.907941 81.711426,282.207941 C82.411426,282.407941 83.111426,282.607941 83.711426,282.907941 C84.411426,283.307941 84.511426,284.007941 85.111426,284.507941 C86.111426,285.307941 86.411426,286.107941 86.911426,287.307941 C87.411426,288.407941 87.811426,289.507941 88.111426,290.707941 C88.711426,292.407941 89.311426,294.107941 89.711426,295.807941 C89.911426,296.807941 92.211426,304.607941 86.611426,305.607941 C83.311426,303.407941 80.611426,301.007941 78.011426,299.807941 L66.011426,299.807941 C63.511426,301.007941 60.711426,303.407941 57.411426,305.607941 C51.811426,304.607941 54.111426,296.807941 54.311426,295.807941 C54.611426,294.207941 55.211426,292.707941 55.811426,291.107941 C56.411426,289.207941 57.111426,287.207941 58.111426,285.407941 C58.311426,285.007941 58.811426,284.807941 59.111426,284.507941 C59.511426,284.107941 59.511426,283.507941 60.011426,283.307941 C62.511426,281.807941 64.311426,281.707941 65.111426,281.707941 L65.111426,281.707941 Z M78.011426,303.707941 C78.211426,303.707941 78.711426,304.107941 78.911426,304.207941 C79.311426,304.407941 80.311426,305.307941 80.611426,305.507941 C81.411426,306.207941 81.611426,306.407941 82.411426,307.107941 C83.011426,307.607941 83.711426,308.107941 84.311426,308.607941 C84.811426,309.007941 85.511426,309.707941 86.211426,309.507941 C86.511426,309.407941 86.811426,309.407941 87.111426,309.307941 C90.111426,308.707941 91.711426,307.007941 92.511426,305.607941 C94.811426,301.707941 93.611426,296.607941 93.211426,294.907941 L93.211426,294.707941 C92.811426,293.107941 92.311426,291.507941 91.711426,289.907941 C90.811426,287.307941 90.011426,284.207941 88.311426,282.007941 C88.011426,281.607941 87.711426,281.307941 87.411426,281.007941 C86.811426,280.407941 86.311426,279.807941 85.611426,279.407941 C83.811426,278.507941 81.811426,277.607941 79.811426,277.507941 C79.011426,277.407941 77.611426,277.407941 76.911426,277.907941 C76.511426,278.207941 76.311426,279.107941 76.011426,279.507941 L72.011426,279.507941 L68.011426,279.507941 C67.711426,279.107941 67.611426,278.607941 67.311426,278.307941 C66.911426,277.707941 65.911426,277.707941 65.111426,277.707941 C63.911426,277.707941 61.511426,277.907941 58.311426,279.607941 C57.611426,280.007941 57.111426,280.507941 56.511426,281.107941 C56.411426,281.207941 56.311426,281.307941 56.211426,281.507941 C53.411426,284.807941 52.211426,289.507941 51.011426,293.707941 C50.911426,294.107941 50.711426,294.507941 50.711426,294.907941 L50.711426,295.107941 C50.311426,296.707941 49.011426,301.807941 51.411426,305.707941 C52.211426,307.107941 53.811426,308.907941 56.811426,309.407941 C57.211426,309.507941 57.811426,309.707941 58.211426,309.707941 C58.711426,309.607941 59.211426,309.107941 59.511426,308.807941 C60.811426,307.807941 62.011426,306.707941 63.211426,305.707941 C64.111426,304.907941 65.111426,304.407941 66.111426,303.707941 C66.011426,303.707941 78.011426,303.707941 78.011426,303.707941 Z" id="Shape-Copy-2"></path>
        </g>
    </g>
</svg>