<?xml version="1.0" encoding="UTF-8" standalone="no"?>
<svg width="39px" height="40px" viewBox="0 0 39 40" version="1.1" xmlns="http://www.w3.org/2000/svg" xmlns:xlink="http://www.w3.org/1999/xlink">
    <!-- Generator: Sketch 42 (36781) - http://www.bohemiancoding.com/sketch -->
    <title>Shape Copy 3</title>
    <desc>Created with Sketch.</desc>
    <defs></defs>
    <g id="Welcome" stroke="none" stroke-width="1" fill="none" fill-rule="evenodd">
        <g id="Desktop-HD" transform="translate(-1284.000000, -151.000000)" fill="#231F20">
            <path d="M1299.95455,173 L1285.77273,173 C1284.79773,173 1284,173.9 1284,175 L1284,189 C1284,190.1 1284.79773,191 1285.77273,191 L1299.95455,191 C1300.92955,191 1301.72727,190.1 1301.72727,189 L1301.72727,175 C1301.72727,173.9 1300.92955,173 1299.95455,173 Z M1298.18182,186 C1298.18182,186.6 1297.82727,187 1297.29545,187 L1288.43182,187 C1287.9,187 1287.54545,186.6 1287.54545,186 L1287.54545,178 C1287.54545,177.4 1287.9,177 1288.43182,177 L1297.29545,177 C1297.82727,177 1298.18182,177.4 1298.18182,178 L1298.18182,186 Z M1321.22727,151 L1307.04545,151 C1306.07045,151 1305.27273,151.9 1305.27273,153 L1305.27273,167 C1305.27273,168.1 1306.07045,169 1307.04545,169 L1321.22727,169 C1322.20227,169 1323,168.1 1323,167 L1323,153 C1323,151.9 1322.20227,151 1321.22727,151 Z M1319.45455,164 C1319.45455,164.6 1319.1,165 1318.56818,165 L1309.70455,165 C1309.17273,165 1308.81818,164.6 1308.81818,164 L1308.81818,156 C1308.81818,155.4 1309.17273,155 1309.70455,155 L1318.56818,155 C1319.1,155 1319.45455,155.4 1319.45455,156 L1319.45455,164 Z M1299.95455,151 L1285.77273,151 C1284.79773,151 1284,151.9 1284,153 L1284,167 C1284,168.1 1284.79773,169 1285.77273,169 L1299.95455,169 C1300.92955,169 1301.72727,168.1 1301.72727,167 L1301.72727,153 C1301.72727,151.9 1300.92955,151 1299.95455,151 Z M1298.18182,164 C1298.18182,164.6 1297.82727,165 1297.29545,165 L1288.43182,165 C1287.9,165 1287.54545,164.6 1287.54545,164 L1287.54545,156 C1287.54545,155.4 1287.9,155 1288.43182,155 L1297.29545,155 C1297.82727,155 1298.18182,155.4 1298.18182,156 L1298.18182,164 Z M1321.22727,173 L1307.04545,173 C1306.07045,173 1305.27273,173.9 1305.27273,175 L1305.27273,189 C1305.27273,190.1 1306.07045,191 1307.04545,191 L1321.22727,191 C1322.20227,191 1323,190.1 1323,189 L1323,175 C1323,173.9 1322.20227,173 1321.22727,173 Z M1319.45455,186 C1319.45455,186.6 1319.1,187 1318.56818,187 L1309.70455,187 C1309.17273,187 1308.81818,186.6 1308.81818,186 L1308.81818,178 C1308.81818,177.4 1309.17273,177 1309.70455,177 L1318.56818,177 C1319.1,177 1319.45455,177.4 1319.45455,178 L1319.45455,186 Z" id="Shape-Copy-3"></path>
        </g>
    </g>
</svg>