<?xml version="1.0" encoding="UTF-8" standalone="no"?>
<svg width="44px" height="36px" viewBox="0 0 44 36" version="1.1" xmlns="http://www.w3.org/2000/svg" xmlns:xlink="http://www.w3.org/1999/xlink">
    <!-- Generator: Sketch 42 (36781) - http://www.bohemiancoding.com/sketch -->
    <title>Shape Copy 6</title>
    <desc>Created with Sketch.</desc>
    <defs></defs>
    <g id="Welcome" stroke="none" stroke-width="1" fill="none" fill-rule="evenodd">
        <g id="Desktop-HD" transform="translate(-1244.000000, -25.000000)" fill-rule="nonzero" fill="#000000">
            <path d="M1288,45.1 L1288,59 C1288,60.1 1287.1,61 1286,61 L1266,61 L1246,61 C1244.9,61 1244,60.1 1244,59 L1244,45.3 L1244,44.6 L1244.1,44.3 L1244.1,44.3 L1250.3,26.6 C1250.5,25.6 1251.2,25.1 1252,25 L1280,25 C1280.8,25.1 1281.5,25.6 1281.7,26.4 L1287.9,44.1 L1287.9,44.1 L1288,44.4 L1288,45.1 L1288,45.1 Z M1253.2,29.7 L1249,41.7 C1248.8,42.3 1249.3,43 1250,43 L1258,43 C1258.6,43 1259.2,43.3 1259.5,43.8 L1264.4,48.7 C1264.6,48.9 1264.8,49 1265.1,49 L1266,49 L1266.8,49 C1267.1,49 1267.3,48.9 1267.5,48.7 L1272.4,43.8 C1272.8,43.3 1273.3,43 1273.9,43 L1282,43 C1282.7,43 1283.2,42.3 1282.9,41.7 L1278.7,29.7 C1278.6,29.3 1278.2,29 1277.8,29 L1254.1,29 C1253.7,29 1253.3,29.3 1253.2,29.7 Z M1256.8,47 L1249,47 C1248.4,47 1248,47.4 1248,48 L1248,56 C1248,56.6 1248.4,57 1249,57 L1283,57 C1283.6,57 1284,56.6 1284,56 L1284,48 C1284,47.4 1283.6,47 1283,47 L1275.2,47 C1274.9,47 1274.7,47.1 1274.5,47.3 L1270.5,51.3 C1269.9,51.8 1269.4,52.6 1268.7,52.9 C1267.9,53.2 1266.9,53.2 1266,53.1 C1265.1,53.1 1264.4,53.1 1263.6,52.9 C1263,52.7 1262.6,52.3 1262.2,51.9 L1257.6,47.3 C1257.4,47.1 1257.1,47 1256.8,47 Z" id="Shape-Copy-6"></path>
        </g>
    </g>
</svg>