<?xml version="1.0" encoding="UTF-8" standalone="no"?>
<svg width="39px" height="35px" viewBox="0 0 39 35" version="1.1" xmlns="http://www.w3.org/2000/svg" xmlns:xlink="http://www.w3.org/1999/xlink">
    <!-- Generator: Sketch 42 (36781) - http://www.bohemiancoding.com/sketch -->
    <title>Shape Copy 4</title>
    <desc>Created with Sketch.</desc>
    <defs></defs>
    <g id="Welcome" stroke="none" stroke-width="1" fill="none" fill-rule="evenodd">
        <g id="Desktop-HD" transform="translate(-1218.000000, -152.000000)" fill-rule="nonzero" fill="#000000">
            <path d="M1255.22727,166 L1219.77273,166 C1218.79773,166 1218,165.2125 1218,164.25 C1218,163.2875 1218.79773,162.5 1219.77273,162.5 L1255.22727,162.5 C1256.20227,162.5 1257,163.2875 1257,164.25 C1257,165.2125 1256.20227,166 1255.22727,166 Z M1246.36364,155.5 L1219.77273,155.5 C1218.79773,155.5 1218,154.7125 1218,153.75 C1218,152.7875 1218.79773,152 1219.77273,152 L1246.36364,152 C1247.33864,152 1248.13636,152.7875 1248.13636,153.75 C1248.13636,154.7125 1247.33864,155.5 1246.36364,155.5 Z M1219.77273,173 L1237.5,173 C1238.475,173 1239.27273,173.7875 1239.27273,174.75 C1239.27273,175.7125 1238.475,176.5 1237.5,176.5 L1219.77273,176.5 C1218.79773,176.5 1218,175.7125 1218,174.75 C1218,173.7875 1218.79773,173 1219.77273,173 Z M1219.77273,183.5 L1251.68182,183.5 C1252.65682,183.5 1253.45455,184.2875 1253.45455,185.25 C1253.45455,186.2125 1252.65682,187 1251.68182,187 L1219.77273,187 C1218.79773,187 1218,186.2125 1218,185.25 C1218,184.2875 1218.79773,183.5 1219.77273,183.5 Z" id="Shape-Copy-4"></path>
        </g>
    </g>
</svg>