<?xml version="1.0" encoding="UTF-8" standalone="no"?>
<svg width="44px" height="37px" viewBox="0 0 44 37" version="1.1" xmlns="http://www.w3.org/2000/svg" xmlns:xlink="http://www.w3.org/1999/xlink">
    <!-- Generator: Sketch 42 (36781) - http://www.bohemiancoding.com/sketch -->
    <title>Shape Copy 8</title>
    <desc>Created with Sketch.</desc>
    <defs></defs>
    <g id="Welcome" stroke="none" stroke-width="1" fill="none" fill-rule="evenodd">
        <g id="Desktop-HD" transform="translate(-50.000000, -341.000000)" fill-rule="nonzero" fill="#000000">
            <path d="M90,369.163627 L54,369.163627 C51.8,369.163627 50,367.363627 50,365.163627 L50,345.163627 C50,342.963627 51.8,341.163627 54,341.163627 L90,341.163627 C92.2,341.163627 94,342.963627 94,345.163627 L94,365.163627 C94,367.363627 92.2,369.163627 90,369.163627 Z M90,347.163627 C90,346.063627 89.1,345.163627 88,345.163627 L56,345.163627 C54.9,345.163627 54,346.063627 54,347.163627 L54,363.163627 C54,364.263627 54.9,365.163627 56,365.163627 L88,365.163627 C89.1,365.163627 90,364.263627 90,363.163627 L90,347.163627 Z M62,373.163627 L82,373.163627 C83.1,373.163627 84,374.063627 84,375.163627 C84,376.263627 83.1,377.163627 82,377.163627 L62,377.163627 C60.9,377.163627 60,376.263627 60,375.163627 C60,374.063627 60.9,373.163627 62,373.163627 Z" id="Shape-Copy-8"></path>
        </g>
    </g>
</svg>