<?xml version="1.0" encoding="UTF-8" standalone="no"?>
<svg width="45px" height="44px" viewBox="0 0 45 44" version="1.1" xmlns="http://www.w3.org/2000/svg" xmlns:xlink="http://www.w3.org/1999/xlink">
    <!-- Generator: Sketch 42 (36781) - http://www.bohemiancoding.com/sketch -->
    <title>Shape Copy 5</title>
    <desc>Created with Sketch.</desc>
    <defs></defs>
    <g id="Welcome" stroke="none" stroke-width="1" fill="none" fill-rule="evenodd">
        <g id="Desktop-HD" transform="translate(-1310.000000, -21.000000)" fill="#231F20">
            <path d="M1352.8,38.5 L1351.3,37.8 C1349.4,36.9 1348.6,34.8 1349.2,32.8 L1349.3,32.5 L1349.3,32.5 L1349.7,31.3 C1350,30.6 1349.8,29.8 1349.2,29.2 L1348.3,28.3 L1348.3,28.3 L1346.9,26.9 L1345.5,25.5 C1345,25 1344.1,24.8 1343.4,25 L1342.2,25.4 L1342.2,25.4 L1342.2,25.4 L1342,25.5 C1340.1,26.2 1337.9,25.3 1337,23.4 L1336.9,23.2 L1336.9,23.2 L1336.4,22.1 C1336.1,21.4 1335.4,21 1334.6,21 L1333.3,21 L1330.6,21 L1329.3,21 C1328.5,21 1327.8,21.4 1327.5,22.1 L1326.8,23.6 C1325.9,25.5 1323.8,26.3 1321.8,25.7 L1321.5,25.6 L1320.3,25.2 C1319.6,24.9 1318.8,25.1 1318.2,25.7 L1314.5,29.4 C1314,29.9 1313.8,30.8 1314,31.5 L1314.5,32.9 L1314.5,33 C1315.2,34.9 1314.3,37.1 1312.4,38 L1312.2,37.9 L1312.2,37.9 L1311.1,38.4 C1310.4,38.7 1310,39.4 1310,40.2 L1310,41.5 L1310,44.2 L1310,45.5 C1310,46.3 1310.4,47 1311.1,47.3 L1312.4,47.9 L1312.6,48 C1314.5,48.9 1315.3,51 1314.7,53 L1314.7,53.1 L1314.6,53.3 L1314.6,53.3 L1314.2,54.5 C1313.9,55.2 1314.1,56 1314.7,56.6 L1315.6,57.5 L1315.6,57.5 L1317.3,59.2 L1318.4,60.3 C1318.9,60.8 1319.8,61 1320.5,60.8 L1322,60.3 C1323.9,59.6 1326.1,60.5 1327,62.4 L1327.2,62.8 L1327.2,62.8 L1327.7,63.9 C1328,64.6 1328.7,65 1329.5,65 L1330.8,65 L1333.5,65 L1334.8,65 C1335.6,65 1336.3,64.6 1336.6,63.9 L1337.1,62.8 L1337.1,62.8 L1337.3,62.5 C1338.2,60.6 1340.3,59.8 1342.3,60.4 L1342.3,60.4 L1343.8,60.9 C1344.5,61.2 1345.3,61 1345.9,60.4 L1346.8,59.5 L1346.8,59.5 L1348.7,57.6 L1348.7,57.6 L1349.6,56.7 C1350.1,56.2 1350.3,55.3 1350.1,54.6 L1349.6,53.1 C1348.9,51.2 1349.8,49 1351.7,48.1 L1353.2,47.4 C1353.9,47.1 1354.3,46.4 1354.3,45.6 L1354.3,44.3 L1354.3,41.6 L1354.3,40.3 C1353.9,39.5 1353.5,38.8 1352.8,38.5 Z M1349.9,43.2 C1349.9,44 1349.5,44.6 1348.8,45 L1347.4,45.7 C1345.1,46.8 1344,49.5 1344.9,51.9 L1345.5,53.5 C1345.8,54.2 1345.6,55.1 1345,55.6 L1344.6,56 C1344.1,56.6 1343.2,56.7 1342.5,56.5 L1340.9,56 C1340.4,55.8 1339.8,55.7 1339.2,55.7 C1337.3,55.7 1335.5,56.7 1334.7,58.4 L1334,59.8 C1333.7,60.5 1333,60.9 1332.2,60.9 L1331.5,60.9 C1330.7,60.9 1330.1,60.5 1329.7,59.8 L1329,58.3 C1328.2,56.6 1326.4,55.5 1324.5,55.5 C1323.9,55.5 1323.3,55.6 1322.8,55.8 L1321.3,56.4 C1320.6,56.7 1319.8,56.5 1319.2,55.9 L1318.8,55.5 C1318.3,55 1318.1,54.1 1318.3,53.4 L1318.8,51.9 C1319.7,49.5 1318.7,46.8 1316.4,45.7 L1314.9,45 C1314.2,44.7 1313.8,44 1313.8,43.2 L1313.8,42.5 C1313.8,41.7 1314.2,41.1 1314.9,40.7 L1316.3,40 C1318.6,38.9 1319.7,36.2 1318.8,33.8 L1318.2,32.2 C1317.9,31.5 1318.1,30.6 1318.7,30.1 L1319.1,29.7 C1319.6,29.1 1320.5,29 1321.2,29.2 L1322.8,29.8 C1323.3,30 1323.9,30.1 1324.5,30.1 C1326.4,30.1 1328.2,29.1 1329,27.4 L1329.7,26 C1330,25.3 1330.7,24.9 1331.5,24.9 L1332.2,24.9 C1333,24.9 1333.6,25.3 1334,26 L1334.7,27.5 C1335.5,29.2 1337.3,30.3 1339.2,30.3 C1339.8,30.3 1340.3,30.2 1340.9,30 L1342.4,29.4 C1343.1,29.1 1343.9,29.3 1344.5,29.9 L1344.9,30.3 C1345.4,30.8 1345.6,31.7 1345.4,32.4 L1344.9,33.8 C1344,36.2 1345,38.9 1347.3,40 L1348.8,40.7 C1349.5,41 1349.9,41.7 1349.9,42.5 L1349.9,43.2 Z M1331.9,34.9 C1327.5,34.9 1323.9,38.5 1323.9,42.9 C1323.9,47.3 1327.5,50.9 1331.9,50.9 C1336.3,50.9 1339.9,47.3 1339.9,42.9 C1339.9,38.5 1336.3,34.9 1331.9,34.9 Z M1331.9,46.9 C1329.7,46.9 1327.9,45.1 1327.9,42.9 C1327.9,40.7 1329.7,38.9 1331.9,38.9 C1334.1,38.9 1335.9,40.7 1335.9,42.9 C1335.9,45.1 1334.1,46.9 1331.9,46.9 Z" id="Shape-Copy-5"></path>
        </g>
    </g>
</svg>