<svg xmlns="http://www.w3.org/2000/svg" viewBox="0 0 24 30" x="0px" y="0px"><title>new window, export, opens in new window</title><g><polygon points="19 19 5 19 5 5 12 5 12 3 5 3 3 3 3 5 3 19 3 21 5 21 19 21 21 21 21 19 21 12 19 12 19 19"/><polygon points="19 3 14 3 14 5 17.59 5 12.93 9.66 14.34 11.07 19 6.41 19 10 21 10 21 5 21 3 19 3"/></g><text x="0" y="39" fill="#000000" font-size="5px" font-weight="bold" font-family="'Helvetica Neue', Helvetica, Arial-Unicode, Arial, Sans-serif">Created by Chet Tailor</text><text x="0" y="44" fill="#000000" font-size="5px" font-weight="bold" font-family="'Helvetica Neue', Helvetica, Arial-Unicode, Arial, Sans-serif">from the Noun Project</text></svg>