<?xml version="1.0" encoding="UTF-8"?>
<svg width="350px" height="78px" viewBox="0 0 350 78" version="1.1" xmlns="http://www.w3.org/2000/svg" xmlns:xlink="http://www.w3.org/1999/xlink">
    <!-- Generator: Sketch 46.2 (44496) - http://www.bohemiancoding.com/sketch -->
    <title>Page 1</title>
    <desc>Created with Sketch.</desc>
    <defs></defs>
    <g id="Welcome" stroke="none" stroke-width="1" fill="none" fill-rule="evenodd">
        <g id="Page-1" fill="#000000">
            <path d="M50.3354408,0 L43.8130419,3.48952951 L46.832671,10.270601 L54.8151493,10.270601 L50.3354408,0 Z M32.3242413,0 L32.8109345,13.6646723 L0.195387765,13.6646723 L0.195387765,21.1245581 L32.0329359,21.1245581 L50.6267461,78 L58.2184489,74.0261082 L40.8893304,21.1245581 L59,21.1245581 L59,13.6646723 L41.1806358,13.6646723 L40.6939427,0 L32.3242413,0 Z M3.60579239,9.98069078 L28.5301662,9.98069078 L28.5301662,3.68044602 L3.60579239,3.68044602 L3.60579239,9.98069078 Z M3.60579239,37.5964101 L31.2549374,37.5964101 L31.2549374,30.2284471 L3.60579239,30.2284471 L3.60579239,37.5964101 Z M0,65.3040522 L3.89709778,72.569486 L36.6085621,59.2972532 L32.7114644,52.0282839 L0,65.3040522 Z" id="Fill-1"></path>
            <path d="M109.159134,0 L95,34.5380531 L102.272437,38.3185841 L103.050995,36.279646 L103.050995,78 L110.999362,78 L110.999362,16.7823009 L117.886059,0 L109.159134,0 Z M117.011951,2.52389381 L117.011951,10.5734513 L128.16656,10.5734513 L126.616523,25.419469 L118.664617,25.419469 L118.664617,33.3699115 L125.837965,33.3699115 L122.058421,69.1681416 L114.301154,69.1681416 L114.301154,77.1221239 L156,77.1221239 L156,69.1681416 L149.212392,69.1681416 L149.212392,25.419469 L134.663979,25.419469 L136.217555,10.5734513 L153.285665,10.5734513 L153.285665,2.52389381 L117.011951,2.52389381 Z M133.88896,33.3699115 L140.970296,33.3699115 L140.970296,69.1681416 L130.105877,69.1681416 L133.88896,33.3699115 Z" id="Fill-2"></path>
            <path d="M229.065763,0 L229.065763,5.04424779 L216.42059,5.04424779 L216.42059,12.6123894 L229.065763,12.6123894 L229.065763,17.6566372 L213.207822,17.6566372 L213.207822,25.0265487 L221.188267,25.0265487 L213.988826,39.0938053 L221.092417,42.7787611 L230.233719,25.0265487 L234.419193,25.0265487 L234.419193,37.0584071 L252.513647,37.0584071 L252.513647,30.1699115 L242.396089,30.1699115 L242.396089,25.0265487 L253,25.0265487 L253,17.6566372 L237.142059,17.6566372 L237.142059,12.6123894 L249.787232,12.6123894 L249.787232,5.04424779 L237.142059,5.04424779 L237.142059,0 L229.065763,0 Z M192,1.93982301 L192,78 L199.589944,78 L199.589944,49.6672566 L202.994413,55.9752212 L211.557062,55.9752212 L211.557062,27.2566372 L209.51225,22.1238938 L214.084677,1.93982301 L192,1.93982301 Z M199.589944,8.33982301 L205.135075,8.33982301 L202.703311,18.920354 L201.826456,22.700885 L204.15882,28.619469 L204.15882,49.0867257 L199.589944,49.0867257 L199.589944,8.33982301 Z M229.065763,38.899115 L229.065763,48.4070796 L216.906943,48.4070796 L216.906943,56.2690265 L229.065763,56.2690265 L229.065763,69.9433628 L213.207822,69.9433628 L213.207822,77.8017699 L253,77.8017699 L253,69.9433628 L237.142059,69.9433628 L237.142059,56.2690265 L249.304429,56.2690265 L249.304429,48.4070796 L237.142059,48.4070796 L237.142059,38.899115 L229.065763,38.899115 Z" id="Fill-3"></path>
            <path d="M291,1 L291,8.26281728 L310.408082,8.26281728 L308.650181,14.2674531 L297.629493,14.2674531 L297.629493,60.5621701 L343.270869,60.5621701 L343.270869,14.3628769 L339.566466,14.2674531 L317.233293,14.2674531 L319.087274,8.26281728 L350,8.26281728 L350,1 L291,1 Z M305.920808,26.7609125 L334.983112,26.7609125 L334.983112,22.1169505 L305.920808,22.1169505 L305.920808,26.7609125 Z M305.920808,38.8691421 L334.983112,38.8691421 L334.983112,34.1262221 L305.920808,34.1262221 L305.920808,38.8691421 Z M305.920808,52.815165 L334.983112,52.815165 L334.983112,46.4252995 L305.920808,46.4252995 L305.920808,52.815165 Z M328.741496,63.955019 L341.616164,78 L349.512485,73.7341993 L340.441858,63.955019 L328.741496,63.955019 Z M300.462063,63.955019 L291.487515,73.8331574 L299.387394,78 L312.162425,63.955019 L300.462063,63.955019 Z" id="Fill-4"></path>
        </g>
    </g>
</svg>
