<?xml version="1.0" encoding="utf-8"?>
<!-- Generator: Adobe Illustrator 15.0.0, SVG Export Plug-In . SVG Version: 6.00 Build 0)  -->
<!DOCTYPE svg PUBLIC "-//W3C//DTD SVG 1.1//EN" "http://www.w3.org/Graphics/SVG/1.1/DTD/svg11.dtd">
<svg version="1.1" id="Layer_1" xmlns="http://www.w3.org/2000/svg" xmlns:xlink="http://www.w3.org/1999/xlink" x="0px" y="0px"
	 width="339.703px" height="107.682px" viewBox="0 0 339.703 107.682" enable-background="new 0 0 339.703 107.682"
	 xml:space="preserve">
<g>
	<path fill="#FFFFFF" d="M97.084,99.639H2.944V5.499h94.14V99.639z M97.084,99.639L2.944,5.499"/>
	<path fill="none" stroke="#010101" stroke-width="5.888" stroke-miterlimit="10" d="M97.084,99.639H2.944V5.499h94.14V99.639z
		 M97.084,99.639L2.944,5.499"/>
	<path fill="#FFFFFF" d="M225.721,5.499l-54.885,96.083L119.837,5.499H225.721z M171.022,5.499v95.363"/>
	<path fill="none" stroke="#010101" stroke-width="5.888" stroke-miterlimit="10" d="M225.721,5.499l-54.885,96.083L119.837,5.499
		H225.721z M171.022,5.499v95.363"/>
	<path fill="#FFFFFF" d="M286.163,104.136c-27.944,0-50.597-22.653-50.597-50.596s22.652-50.596,50.597-50.596
		c27.942,0,50.596,22.653,50.596,50.596S314.105,104.136,286.163,104.136 M336.759,53.54H235.566"/>
	<path fill="none" stroke="#010101" stroke-width="5.888" stroke-miterlimit="10" d="M286.163,104.136
		c-27.944,0-50.597-22.653-50.597-50.596s22.652-50.596,50.597-50.596c27.942,0,50.596,22.653,50.596,50.596
		S314.105,104.136,286.163,104.136z M336.759,53.54H235.566"/>
</g>
</svg>
