<svg xmlns="http://www.w3.org/2000/svg" width="99" height="23">
  <path fill-rule="evenodd" d="M14.1687-.0002l-1.836.987.85 1.918h2.247l-1.261-2.905zm-5.07 0l.137 3.865H.0547v2.11h8.962l5.234 16.087 2.137-1.124-4.878-14.963h5.098v-2.11h-5.016l-.137-3.865h-2.356zm-8.084 2.823h7.016v-1.782h-7.016v1.782zm0 7.811h7.783v-2.084h-7.783v2.084zm-1.015 7.837l1.097 2.055 9.208-3.754-1.097-2.056-9.208 3.755zM30.7836-.0002l-4.001 9.757 2.055 1.068.22-.576v11.786h2.246V4.7408l1.946-4.741h-2.466zm2.219.713v2.274h3.152l-.438 4.194h-2.247v2.246h2.027l-1.068 10.113h-2.192v2.247h11.783v-2.247h-1.918V7.1808h-4.111l.439-4.194h4.823V.7128h-10.25zm4.769 8.714h2.001v10.113h-3.07l1.069-10.113zm26.9186-9.427v1.425h-3.562v2.138h3.562v1.425h-4.467v2.082h2.248l-2.028 3.974 2.001 1.041 2.575-5.015h1.179v3.399h5.097v-1.946h-2.85v-1.453h2.987v-2.082h-4.467v-1.425h3.562v-2.138h-3.562v-1.425h-2.275zm-10.441.548v21.487h2.138v-8.004l.959 1.782h2.412v-8.113l-.576-1.45 1.288-5.702h-6.221zm2.138 1.808h1.562l-.685 2.989-.247 1.068.657 1.672v5.782h-1.287V2.3558zm8.303 8.633v2.686h-3.425v2.221h3.425v3.863h-4.467v2.22h11.209v-2.22h-4.467v-3.863h3.426v-2.221h-3.426v-2.686h-2.275zM82.2924.2743v2.055h5.454l-.494 1.699h-3.097v13.099h12.826V4.0553l-1.041-.027h-6.276l.521-1.699h8.687V.2743h-16.58zm4.193 7.289h8.167v-1.314h-8.167v1.314zm0 3.426h8.167v-1.342h-8.167v1.342zm0 3.946h8.167v-1.808h-8.167v1.808zm6.413 3.152l3.618 3.974 2.219-1.207-2.549-2.767h-3.288zm-7.947 0l-2.522 2.795 2.22 1.179 3.59-3.974h-3.288z"/>
</svg>
